M48
; DRILL file {KiCad 9.0.5} date 2025-11-02T19:54:10+0900
; FORMAT={-:-/ absolute / metric / decimal}
; #@! TF.CreationDate,2025-11-02T19:54:10+09:00
; #@! TF.GenerationSoftware,Kicad,Pcbnew,9.0.5
; #@! TF.FileFunction,Plated,1,2,PTH
FMAT,2
METRIC
; #@! TA.AperFunction,Plated,PTH,ViaDrill
T1C0.400
; #@! TA.AperFunction,Plated,PTH,ComponentDrill
T2C0.600
; #@! TA.AperFunction,Plated,PTH,ComponentDrill
T3C0.900
; #@! TA.AperFunction,Plated,PTH,ComponentDrill
T4C1.500
%
G90
G05
T1
X320.2Y-139.7
X321.4Y-96.837
X323.0Y-122.2
X323.1Y-85.4
X323.878Y-84.1
X325.541Y-84.766
X326.05Y-85.35
X328.3Y-84.1
X328.8Y-153.3
X328.8Y-162.2
X329.85Y-152.565
X330.2Y-85.4
X331.398Y-153.2
X331.508Y-144.254
X332.7Y-96.8
X333.9Y-139.7
X334.102Y-153.2
X335.061Y-144.986
X336.2Y-164.4
X336.3Y-144.4
X339.4Y-155.201
X343.8Y-122.2
T3
X336.87Y-120.17
X339.41Y-120.17
T4
X43.815Y-88.741
X43.815Y-112.554
X46.196Y-150.654
X46.196Y-188.754
X48.578Y-131.604
X48.578Y-188.754
X50.165Y-86.201
X50.165Y-110.014
X50.959Y-150.654
X52.546Y-148.114
X52.546Y-186.214
X54.927Y-129.064
X54.927Y-186.214
X55.721Y-169.704
X57.309Y-148.114
X62.071Y-167.164
X62.865Y-112.554
X67.627Y-88.741
X69.215Y-110.014
X70.009Y-188.754
X72.39Y-131.604
X72.39Y-188.754
X73.977Y-86.201
X76.359Y-186.214
X77.153Y-150.654
X78.74Y-129.064
X78.74Y-186.214
X81.915Y-88.741
X81.915Y-112.554
X83.502Y-148.114
X86.677Y-88.741
X86.677Y-169.704
X88.265Y-86.201
X88.265Y-110.014
X91.44Y-131.604
X93.027Y-86.201
X93.027Y-167.164
X96.203Y-150.654
X96.203Y-188.754
X97.79Y-129.064
X100.965Y-88.741
X100.965Y-112.554
X102.552Y-148.114
X102.552Y-186.214
X105.727Y-88.741
X105.727Y-169.704
X107.315Y-86.201
X107.315Y-110.014
X110.49Y-131.604
X112.078Y-86.201
X112.078Y-167.164
X115.252Y-150.654
X116.84Y-129.064
X120.015Y-88.741
X120.015Y-112.554
X121.602Y-148.114
X124.777Y-88.741
X124.777Y-169.704
X126.365Y-86.201
X126.365Y-110.014
X129.54Y-131.604
X131.127Y-86.201
X131.127Y-167.164
X134.302Y-150.654
X135.89Y-129.064
X139.065Y-88.741
X139.065Y-112.554
X140.653Y-148.114
X143.827Y-169.704
X145.415Y-86.201
X145.415Y-110.014
X148.59Y-88.741
X148.59Y-131.604
X150.177Y-167.164
X153.352Y-150.654
X154.94Y-86.201
X154.94Y-129.064
X158.115Y-112.554
X159.702Y-148.114
X162.877Y-169.704
X164.465Y-110.014
X167.64Y-88.741
X167.64Y-131.604
X167.64Y-188.754
X169.227Y-167.164
X172.403Y-150.654
X173.99Y-86.201
X173.99Y-129.064
X173.99Y-186.214
X177.165Y-112.554
X177.165Y-188.754
X178.752Y-148.114
X181.927Y-169.704
X183.515Y-110.014
X183.515Y-186.214
X186.69Y-88.741
X186.69Y-131.604
X188.278Y-167.164
X191.452Y-150.654
X193.04Y-86.201
X193.04Y-129.064
X196.215Y-112.554
X197.802Y-148.114
X200.977Y-169.704
X202.565Y-110.014
X205.74Y-88.741
X205.74Y-131.604
X207.327Y-167.164
X210.502Y-150.654
X212.09Y-86.201
X212.09Y-129.064
X215.265Y-112.554
X216.852Y-148.114
X220.028Y-169.704
X221.615Y-110.014
X224.79Y-88.741
X224.79Y-131.604
X226.377Y-167.164
X229.552Y-88.741
X229.552Y-150.654
X231.14Y-86.201
X231.14Y-129.064
X234.315Y-112.554
X235.903Y-86.201
X235.903Y-148.114
X239.077Y-169.704
X239.077Y-188.754
X240.665Y-110.014
X243.84Y-131.604
X245.427Y-167.164
X245.427Y-186.214
X248.602Y-88.741
X248.602Y-150.654
X250.19Y-129.064
X253.365Y-88.741
X253.365Y-112.554
X254.952Y-86.201
X254.952Y-148.114
X258.127Y-169.704
X258.127Y-188.754
X259.715Y-86.201
X259.715Y-110.014
X262.89Y-131.604
X262.89Y-188.754
X264.477Y-167.164
X264.477Y-186.214
X267.652Y-88.741
X267.652Y-150.654
X269.24Y-129.064
X269.24Y-186.214
X272.415Y-88.741
X272.415Y-112.554
X274.002Y-86.201
X274.002Y-148.114
X278.765Y-86.201
X278.765Y-110.014
X281.94Y-131.604
X281.94Y-188.754
X284.321Y-169.704
X284.321Y-188.754
X286.702Y-88.741
X288.29Y-129.064
X288.29Y-186.214
X290.671Y-167.164
X290.671Y-186.214
X291.465Y-88.741
X291.465Y-112.554
X293.053Y-86.201
X293.846Y-169.704
X297.815Y-86.201
X297.815Y-110.014
X298.609Y-150.654
X300.196Y-167.164
X300.99Y-112.554
X304.959Y-148.114
X305.752Y-131.604
X305.752Y-188.754
X307.34Y-110.014
X308.134Y-188.754
X310.515Y-88.741
X310.515Y-112.554
X310.515Y-169.704
X312.102Y-129.064
X312.102Y-186.214
X314.484Y-186.214
X316.865Y-86.201
X316.865Y-110.014
X316.865Y-167.164
X334.327Y-88.741
X334.327Y-112.554
X334.327Y-131.604
X334.327Y-188.754
X340.678Y-86.201
X340.678Y-110.014
X340.678Y-129.064
X340.678Y-186.214
X353.377Y-88.741
X353.377Y-112.554
X353.377Y-131.604
X353.377Y-169.704
X353.377Y-188.754
X359.727Y-86.201
X359.727Y-110.014
X359.727Y-129.064
X359.727Y-167.164
X359.727Y-186.214
X372.428Y-88.741
X372.428Y-112.554
X372.428Y-131.604
X372.428Y-188.754
X378.777Y-86.201
X378.777Y-110.014
X378.777Y-129.064
X378.777Y-186.214
T2
G00X321.91Y-77.84
M15
G01X321.91Y-77.24
M16
G05
G00X321.91Y-82.27
M15
G01X321.91Y-81.17
M16
G05
G00X330.55Y-77.84
M15
G01X330.55Y-77.24
M16
G05
G00X330.55Y-82.27
M15
G01X330.55Y-81.17
M16
G05
M30
