%TF.GenerationSoftware,KiCad,Pcbnew,9.0.5*%
%TF.CreationDate,2025-11-02T19:53:54+09:00*%
%TF.ProjectId,Galatea_Old_Type_6u,47616c61-7465-4615-9f4f-6c645f547970,rev?*%
%TF.SameCoordinates,Original*%
%TF.FileFunction,Soldermask,Top*%
%TF.FilePolarity,Negative*%
%FSLAX46Y46*%
G04 Gerber Fmt 4.6, Leading zero omitted, Abs format (unit mm)*
G04 Created by KiCad (PCBNEW 9.0.5) date 2025-11-02 19:53:54*
%MOMM*%
%LPD*%
G01*
G04 APERTURE LIST*
%ADD10C,0.000000*%
%ADD11C,1.750000*%
%ADD12C,4.000000*%
%ADD13C,2.500000*%
%ADD14C,3.048000*%
%ADD15C,3.987800*%
%ADD16C,0.650000*%
%ADD17R,0.600000X1.450000*%
%ADD18R,0.300000X1.450000*%
%ADD19O,1.000000X2.100000*%
%ADD20O,1.000000X1.600000*%
G04 APERTURE END LIST*
D10*
%TO.C,G\u002A\u002A\u002A*%
G36*
X362144111Y-150087421D02*
G01*
X362214138Y-150101272D01*
X362301148Y-150143587D01*
X362383616Y-150214874D01*
X362448991Y-150302176D01*
X362481111Y-150376889D01*
X362492850Y-150494632D01*
X362473060Y-150629062D01*
X362425720Y-150773167D01*
X362354805Y-150919934D01*
X362264295Y-151062349D01*
X362158165Y-151193400D01*
X362040393Y-151306074D01*
X361914956Y-151393357D01*
X361899973Y-151401581D01*
X361753188Y-151458500D01*
X361593302Y-151483903D01*
X361433939Y-151476755D01*
X361314014Y-151446177D01*
X361147015Y-151366100D01*
X361016105Y-151263418D01*
X360921411Y-151138285D01*
X360863065Y-150990856D01*
X360844586Y-150882028D01*
X360849477Y-150737824D01*
X360892902Y-150606863D01*
X360975639Y-150488077D01*
X361098468Y-150380400D01*
X361262165Y-150282763D01*
X361292218Y-150267994D01*
X361470745Y-150193264D01*
X361653777Y-150136290D01*
X361832735Y-150098624D01*
X361999039Y-150081817D01*
X362144111Y-150087421D01*
G37*
G36*
X354157530Y-149813892D02*
G01*
X354265724Y-149862035D01*
X354352894Y-149923552D01*
X354437265Y-150014958D01*
X354490394Y-150112661D01*
X354513757Y-150223672D01*
X354508829Y-150355007D01*
X354477084Y-150513677D01*
X354477047Y-150513820D01*
X354406126Y-150728603D01*
X354299952Y-150959483D01*
X354160852Y-151202306D01*
X353991153Y-151452917D01*
X353842956Y-151646271D01*
X353767005Y-151735656D01*
X353669688Y-151842769D01*
X353557659Y-151960962D01*
X353437571Y-152083590D01*
X353316077Y-152204005D01*
X353199831Y-152315561D01*
X353095485Y-152411611D01*
X353009693Y-152485509D01*
X352977638Y-152510725D01*
X352893092Y-152590740D01*
X352829640Y-152692883D01*
X352821593Y-152710084D01*
X352767283Y-152856479D01*
X352725929Y-153022140D01*
X352698345Y-153197098D01*
X352685347Y-153371383D01*
X352687748Y-153535027D01*
X352706365Y-153678058D01*
X352734666Y-153773860D01*
X352806122Y-153912672D01*
X352893532Y-154025232D01*
X352990867Y-154104079D01*
X353010128Y-154114707D01*
X353089375Y-154143767D01*
X353176174Y-154151722D01*
X353274438Y-154137242D01*
X353388085Y-154098997D01*
X353521030Y-154035656D01*
X353677188Y-153945889D01*
X353860477Y-153828367D01*
X353868230Y-153823202D01*
X354001872Y-153731222D01*
X354157267Y-153619624D01*
X354256034Y-153546568D01*
X355864138Y-153546568D01*
X355865663Y-153623109D01*
X355869677Y-153681517D01*
X355875338Y-153709974D01*
X355875823Y-153710589D01*
X355899262Y-153706024D01*
X355954266Y-153682157D01*
X356035810Y-153641670D01*
X356138865Y-153587245D01*
X356258405Y-153521564D01*
X356389402Y-153447310D01*
X356526829Y-153367165D01*
X356589990Y-153329556D01*
X356760316Y-153225552D01*
X356894915Y-153138004D01*
X356996019Y-153063834D01*
X357065858Y-152999963D01*
X357106665Y-152943312D01*
X357120668Y-152890802D01*
X357110100Y-152839355D01*
X357077190Y-152785890D01*
X357025428Y-152728586D01*
X356983753Y-152689056D01*
X356949163Y-152667859D01*
X356906914Y-152660687D01*
X356842259Y-152663230D01*
X356810298Y-152665723D01*
X356661448Y-152695413D01*
X356503677Y-152757641D01*
X356345972Y-152846194D01*
X356197318Y-152954856D01*
X356066702Y-153077414D01*
X355963110Y-153207654D01*
X355920574Y-153280980D01*
X355886943Y-153359757D01*
X355869624Y-153436325D01*
X355864200Y-153531479D01*
X355864138Y-153546568D01*
X354256034Y-153546568D01*
X354325072Y-153495502D01*
X354495942Y-153365951D01*
X354660533Y-153238065D01*
X354809503Y-153118939D01*
X354933507Y-153015668D01*
X354946323Y-153004629D01*
X355269754Y-152749126D01*
X355619066Y-152518244D01*
X355987361Y-152315436D01*
X356367739Y-152144154D01*
X356753299Y-152007852D01*
X357131323Y-151911171D01*
X357328108Y-151880829D01*
X357520976Y-151869908D01*
X357700950Y-151878066D01*
X357859050Y-151904958D01*
X357971857Y-151943344D01*
X358094609Y-152015284D01*
X358198087Y-152106957D01*
X358273164Y-152209330D01*
X358299088Y-152267058D01*
X358329710Y-152415747D01*
X358320655Y-152568467D01*
X358271603Y-152725671D01*
X358182232Y-152887811D01*
X358052221Y-153055340D01*
X357881251Y-153228710D01*
X357669000Y-153408374D01*
X357415148Y-153594783D01*
X357304894Y-153669347D01*
X357145885Y-153768944D01*
X356963883Y-153873568D01*
X356772657Y-153975894D01*
X356585974Y-154068596D01*
X356417603Y-154144349D01*
X356393345Y-154154381D01*
X356331600Y-154182768D01*
X356291697Y-154207423D01*
X356282369Y-154221545D01*
X356306768Y-154235864D01*
X356361121Y-154257432D01*
X356434301Y-154281890D01*
X356444372Y-154284980D01*
X356572360Y-154313623D01*
X356705438Y-154321674D01*
X356848346Y-154308065D01*
X357005822Y-154271726D01*
X357182607Y-154211587D01*
X357383440Y-154126580D01*
X357592747Y-154025878D01*
X357978456Y-153818051D01*
X358346260Y-153592220D01*
X358559265Y-153446710D01*
X358706897Y-153339464D01*
X358824548Y-153248788D01*
X358918532Y-153168780D01*
X358995163Y-153093537D01*
X359060755Y-153017158D01*
X359121623Y-152933739D01*
X359144217Y-152899898D01*
X359239818Y-152769211D01*
X359359624Y-152628691D01*
X359493564Y-152488567D01*
X359631566Y-152359068D01*
X359763557Y-152250422D01*
X359830656Y-152202790D01*
X359927206Y-152143586D01*
X360035150Y-152084191D01*
X360132501Y-152036648D01*
X360140152Y-152033292D01*
X360210734Y-152004131D01*
X360269785Y-151985032D01*
X360329982Y-151973884D01*
X360404005Y-151968575D01*
X360504531Y-151966994D01*
X360538592Y-151966931D01*
X360650291Y-151967937D01*
X360729790Y-151972050D01*
X360787546Y-151980746D01*
X360834018Y-151995500D01*
X360872750Y-152014062D01*
X360959540Y-152070676D01*
X361015723Y-152136861D01*
X361048678Y-152224171D01*
X361062704Y-152311534D01*
X361065433Y-152457175D01*
X361041385Y-152607109D01*
X360988823Y-152766176D01*
X360906012Y-152939216D01*
X360791217Y-153131070D01*
X360742576Y-153204422D01*
X360611535Y-153390374D01*
X360486929Y-153550575D01*
X360358103Y-153698394D01*
X360298239Y-153762019D01*
X360244038Y-153819497D01*
X360215070Y-153856824D01*
X360206952Y-153884590D01*
X360215298Y-153913387D01*
X360226386Y-153935569D01*
X360292597Y-154023352D01*
X360395091Y-154105552D01*
X360513918Y-154170822D01*
X360591873Y-154202095D01*
X360656457Y-154213787D01*
X360730017Y-154209694D01*
X360737181Y-154208769D01*
X360848545Y-154187117D01*
X360967500Y-154149801D01*
X361096980Y-154095082D01*
X361239920Y-154021220D01*
X361399255Y-153926478D01*
X361577920Y-153809116D01*
X361778850Y-153667397D01*
X362004979Y-153499580D01*
X362242631Y-153316880D01*
X362363240Y-153222284D01*
X362455342Y-153147932D01*
X362524540Y-153088403D01*
X362576440Y-153038276D01*
X362616646Y-152992131D01*
X362650762Y-152944547D01*
X362684394Y-152890103D01*
X362685094Y-152888918D01*
X362835708Y-152666370D01*
X363004965Y-152475888D01*
X363189918Y-152319846D01*
X363387621Y-152200622D01*
X363595127Y-152120590D01*
X363657625Y-152104849D01*
X363766854Y-152089258D01*
X363890151Y-152085272D01*
X364014062Y-152092061D01*
X364125137Y-152108794D01*
X364209921Y-152134641D01*
X364220188Y-152139588D01*
X364290588Y-152186085D01*
X364339825Y-152243699D01*
X364367473Y-152315464D01*
X364373104Y-152404416D01*
X364356293Y-152513591D01*
X364316612Y-152646026D01*
X364253634Y-152804755D01*
X364166933Y-152992815D01*
X364074162Y-153178196D01*
X364011542Y-153304359D01*
X363970817Y-153398813D01*
X363951402Y-153466143D01*
X363952713Y-153510930D01*
X363974165Y-153537758D01*
X364015175Y-153551210D01*
X364026396Y-153552786D01*
X364052141Y-153553862D01*
X364080032Y-153549140D01*
X364114238Y-153536026D01*
X364158924Y-153511927D01*
X364218256Y-153474248D01*
X364296403Y-153420395D01*
X364397530Y-153347775D01*
X364525804Y-153253792D01*
X364628622Y-153177869D01*
X364862058Y-153007252D01*
X365066665Y-152862365D01*
X365245954Y-152741071D01*
X365403438Y-152641233D01*
X365542625Y-152560716D01*
X365667029Y-152497383D01*
X365780159Y-152449097D01*
X365883264Y-152414377D01*
X366015151Y-152392054D01*
X366134245Y-152407302D01*
X366244674Y-152461642D01*
X366350569Y-152556597D01*
X366387813Y-152600314D01*
X366434835Y-152662931D01*
X366467694Y-152720674D01*
X366487813Y-152782122D01*
X366496611Y-152855855D01*
X366495511Y-152950452D01*
X366485933Y-153074491D01*
X366478602Y-153148366D01*
X366463322Y-153328504D01*
X366459525Y-153470957D01*
X366468352Y-153579459D01*
X366490944Y-153657742D01*
X366528443Y-153709539D01*
X366581991Y-153738582D01*
X366652727Y-153748606D01*
X366662149Y-153748708D01*
X366813598Y-153730332D01*
X366985388Y-153675572D01*
X367176458Y-153584983D01*
X367385748Y-153459120D01*
X367612198Y-153298535D01*
X367785062Y-153161899D01*
X367951489Y-153039014D01*
X368109889Y-152949679D01*
X368257334Y-152894988D01*
X368390898Y-152876034D01*
X368504693Y-152892919D01*
X368574800Y-152935639D01*
X368616302Y-153004859D01*
X368629793Y-153095936D01*
X368615864Y-153204226D01*
X368575109Y-153325086D01*
X368508119Y-153453873D01*
X368416412Y-153584781D01*
X368182152Y-153849044D01*
X367907675Y-154103313D01*
X367594558Y-154346281D01*
X367244379Y-154576643D01*
X367152776Y-154631206D01*
X366865619Y-154783358D01*
X366587515Y-154899430D01*
X366321075Y-154978517D01*
X366068909Y-155019716D01*
X366019786Y-155023367D01*
X365870731Y-155026837D01*
X365753686Y-155015989D01*
X365659667Y-154988424D01*
X365579691Y-154941737D01*
X365520695Y-154889917D01*
X365463546Y-154823106D01*
X365416729Y-154744349D01*
X365377584Y-154646552D01*
X365343451Y-154522624D01*
X365311668Y-154365471D01*
X365301178Y-154304726D01*
X365281747Y-154200185D01*
X365261337Y-154110045D01*
X365242263Y-154043446D01*
X365226840Y-154009529D01*
X365226240Y-154008889D01*
X365203477Y-153993148D01*
X365171780Y-153990945D01*
X365119094Y-154002871D01*
X365074822Y-154016287D01*
X365020361Y-154035483D01*
X364959768Y-154061364D01*
X364889719Y-154095910D01*
X364806889Y-154141105D01*
X364707955Y-154198929D01*
X364589591Y-154271366D01*
X364448474Y-154360397D01*
X364281278Y-154468003D01*
X364084680Y-154596168D01*
X363912598Y-154709171D01*
X363701451Y-154847497D01*
X363521989Y-154963402D01*
X363370786Y-155058747D01*
X363244415Y-155135394D01*
X363139452Y-155195204D01*
X363052470Y-155240037D01*
X362980044Y-155271756D01*
X362918746Y-155292219D01*
X362865153Y-155303290D01*
X362815837Y-155306829D01*
X362812387Y-155306842D01*
X362690176Y-155288188D01*
X362562910Y-155237075D01*
X362441282Y-155160722D01*
X362335986Y-155066350D01*
X362257713Y-154961177D01*
X362236493Y-154918007D01*
X362215492Y-154835489D01*
X362204794Y-154715577D01*
X362203466Y-154644085D01*
X362201852Y-154559927D01*
X362197524Y-154495731D01*
X362191251Y-154460505D01*
X362187457Y-154456635D01*
X362165070Y-154471520D01*
X362115785Y-154506875D01*
X362046791Y-154557473D01*
X361965280Y-154618087D01*
X361962038Y-154620513D01*
X361660982Y-154833773D01*
X361370936Y-155014934D01*
X361093820Y-155163100D01*
X360831552Y-155277379D01*
X360586053Y-155356876D01*
X360359243Y-155400695D01*
X360271785Y-155408157D01*
X360113628Y-155409521D01*
X359972936Y-155394123D01*
X359835597Y-155358833D01*
X359687499Y-155300519D01*
X359599432Y-155259017D01*
X359446535Y-155167885D01*
X359295168Y-155048545D01*
X359152526Y-154909052D01*
X359025804Y-154757458D01*
X358922197Y-154601819D01*
X358848899Y-154450188D01*
X358831785Y-154399716D01*
X358813709Y-154339227D01*
X358800039Y-154294186D01*
X358797773Y-154286909D01*
X358776574Y-154284002D01*
X358724194Y-154309270D01*
X358641246Y-154362405D01*
X358623302Y-154374777D01*
X358313252Y-154576622D01*
X357986041Y-154764193D01*
X357651430Y-154932667D01*
X357319177Y-155077222D01*
X356999041Y-155193038D01*
X356913654Y-155219437D01*
X356698203Y-155279602D01*
X356506961Y-155323593D01*
X356325567Y-155353533D01*
X356139661Y-155371542D01*
X355934883Y-155379744D01*
X355821449Y-155380829D01*
X355675673Y-155380553D01*
X355563818Y-155378607D01*
X355477128Y-155374242D01*
X355406844Y-155366708D01*
X355344210Y-155355255D01*
X355280468Y-155339135D01*
X355257274Y-155332541D01*
X355071830Y-155266658D01*
X354892514Y-155180122D01*
X354726450Y-155077903D01*
X354580756Y-154964971D01*
X354462556Y-154846296D01*
X354378969Y-154726848D01*
X354372920Y-154715311D01*
X354327242Y-154625360D01*
X354126071Y-154771067D01*
X353822400Y-154974150D01*
X353528022Y-155136500D01*
X353241547Y-155258718D01*
X352961585Y-155341400D01*
X352703569Y-155383564D01*
X352491215Y-155384220D01*
X352289032Y-155344888D01*
X352099326Y-155267538D01*
X351924402Y-155154141D01*
X351766564Y-155006666D01*
X351628118Y-154827084D01*
X351511369Y-154617366D01*
X351418622Y-154379481D01*
X351383051Y-154254869D01*
X351361961Y-154180870D01*
X351342063Y-154126426D01*
X351327183Y-154101752D01*
X351325514Y-154101249D01*
X351300900Y-154112432D01*
X351249267Y-154142299D01*
X351179085Y-154185806D01*
X351125650Y-154220242D01*
X350979933Y-154314239D01*
X350847553Y-154396366D01*
X350718662Y-154472204D01*
X350583412Y-154547334D01*
X350431955Y-154627336D01*
X350254444Y-154717790D01*
X350194851Y-154747692D01*
X349826556Y-154924092D01*
X349482096Y-155072069D01*
X349155371Y-155193636D01*
X348840284Y-155290808D01*
X348530735Y-155365598D01*
X348220627Y-155420019D01*
X348116631Y-155433913D01*
X347998558Y-155444324D01*
X347852621Y-155450809D01*
X347690143Y-155453468D01*
X347522446Y-155452400D01*
X347360853Y-155447705D01*
X347216685Y-155439482D01*
X347101266Y-155427830D01*
X347080861Y-155424817D01*
X346893353Y-155390209D01*
X346733416Y-155349145D01*
X346585972Y-155297070D01*
X346438309Y-155230588D01*
X346230903Y-155110333D01*
X346062123Y-154972070D01*
X345931725Y-154815440D01*
X345839465Y-154640082D01*
X345785096Y-154445634D01*
X345768321Y-154242720D01*
X345789617Y-153994275D01*
X345852420Y-153743320D01*
X345955702Y-153490974D01*
X346098436Y-153238355D01*
X346279595Y-152986583D01*
X346498149Y-152736777D01*
X346753073Y-152490054D01*
X347043338Y-152247535D01*
X347367917Y-152010338D01*
X347725781Y-151779582D01*
X348115905Y-151556386D01*
X348345927Y-151436205D01*
X348602386Y-151311870D01*
X348865955Y-151194219D01*
X349133121Y-151084195D01*
X349400370Y-150982740D01*
X349664190Y-150890797D01*
X349921067Y-150809308D01*
X350167488Y-150739217D01*
X350399940Y-150681467D01*
X350614909Y-150636999D01*
X350808882Y-150606757D01*
X350978346Y-150591683D01*
X351119787Y-150592720D01*
X351229693Y-150610811D01*
X351300139Y-150643480D01*
X351392792Y-150736931D01*
X351448571Y-150851775D01*
X351467163Y-150986961D01*
X351446759Y-151176254D01*
X351387580Y-151354123D01*
X351292675Y-151517695D01*
X351165091Y-151664097D01*
X351007877Y-151790456D01*
X350824081Y-151893902D01*
X350616753Y-151971560D01*
X350388939Y-152020559D01*
X350367097Y-152023521D01*
X350250254Y-152032069D01*
X350109081Y-152032425D01*
X349956779Y-152025491D01*
X349806553Y-152012169D01*
X349671605Y-151993363D01*
X349565138Y-151969974D01*
X349559564Y-151968331D01*
X349511361Y-151954761D01*
X349472782Y-151949488D01*
X349432876Y-151954507D01*
X349380690Y-151971812D01*
X349305275Y-152003399D01*
X349261089Y-152022695D01*
X348952909Y-152171611D01*
X348664590Y-152338857D01*
X348399787Y-152521374D01*
X348162152Y-152716101D01*
X347955340Y-152919978D01*
X347783005Y-153129945D01*
X347648799Y-153342942D01*
X347622076Y-153395394D01*
X347560826Y-153550159D01*
X347537005Y-153686913D01*
X347550762Y-153808437D01*
X347602245Y-153917513D01*
X347653136Y-153980068D01*
X347756247Y-154065103D01*
X347887952Y-154132690D01*
X348051379Y-154183861D01*
X348249655Y-154219646D01*
X348436053Y-154237928D01*
X348656038Y-154245795D01*
X348873809Y-154237668D01*
X349093607Y-154212343D01*
X349319675Y-154168614D01*
X349556253Y-154105277D01*
X349807583Y-154021125D01*
X350077905Y-153914955D01*
X350371462Y-153785559D01*
X350692494Y-153631734D01*
X350853508Y-153550943D01*
X350999936Y-153476143D01*
X351112389Y-153417472D01*
X351195213Y-153372246D01*
X351252750Y-153337782D01*
X351289348Y-153311395D01*
X351309350Y-153290402D01*
X351317102Y-153272119D01*
X351317751Y-153264190D01*
X351326937Y-153162979D01*
X351352788Y-153031855D01*
X351392749Y-152879020D01*
X351444262Y-152712677D01*
X351504771Y-152541029D01*
X351571720Y-152372278D01*
X351642551Y-152214627D01*
X351649102Y-152201114D01*
X351795013Y-151927672D01*
X351968562Y-151645622D01*
X352164209Y-151361835D01*
X352376414Y-151083184D01*
X352599637Y-150816539D01*
X352828338Y-150568773D01*
X353056977Y-150346756D01*
X353280013Y-150157360D01*
X353324138Y-150123490D01*
X353422403Y-150054894D01*
X353535222Y-149984721D01*
X353653038Y-149918086D01*
X353766297Y-149860101D01*
X353865440Y-149815880D01*
X353940913Y-149790534D01*
X353950089Y-149788584D01*
X354047285Y-149787722D01*
X354157530Y-149813892D01*
G37*
%TD*%
D11*
%TO.C,S39*%
X109220000Y-134143750D03*
D12*
X114300000Y-134143750D03*
D11*
X119380000Y-134143750D03*
D13*
X110490000Y-131603750D03*
X116840000Y-129063750D03*
%TD*%
D11*
%TO.C,S68*%
X104457500Y-172243750D03*
D12*
X109537500Y-172243750D03*
D11*
X114617500Y-172243750D03*
D13*
X105727500Y-169703750D03*
X112077500Y-167163750D03*
%TD*%
D11*
%TO.C,S71*%
X161607500Y-172243750D03*
D12*
X166687500Y-172243750D03*
D11*
X171767500Y-172243750D03*
D13*
X162877500Y-169703750D03*
X169227500Y-167163750D03*
%TD*%
D11*
%TO.C,S75*%
X237807500Y-172243750D03*
D12*
X242887500Y-172243750D03*
D11*
X247967500Y-172243750D03*
D13*
X239077500Y-169703750D03*
X245427500Y-167163750D03*
%TD*%
D11*
%TO.C,S13.5*%
X290195000Y-91281250D03*
D12*
X295275000Y-91281250D03*
D11*
X300355000Y-91281250D03*
D13*
X291465000Y-88741250D03*
X297815000Y-86201250D03*
%TD*%
D11*
%TO.C,S60*%
X190182500Y-153193750D03*
D12*
X195262500Y-153193750D03*
D11*
X200342500Y-153193750D03*
D13*
X191452500Y-150653750D03*
X197802500Y-148113750D03*
%TD*%
D11*
%TO.C,S36*%
X47307500Y-134143750D03*
D12*
X52387500Y-134143750D03*
D11*
X57467500Y-134143750D03*
D13*
X48577500Y-131603750D03*
X54927500Y-129063750D03*
%TD*%
D11*
%TO.C,S62*%
X228282500Y-153193750D03*
D12*
X233362500Y-153193750D03*
D11*
X238442500Y-153193750D03*
D13*
X229552500Y-150653750D03*
X235902500Y-148113750D03*
%TD*%
D11*
%TO.C,S29*%
X252095000Y-115093750D03*
D12*
X257175000Y-115093750D03*
D11*
X262255000Y-115093750D03*
D13*
X253365000Y-112553750D03*
X259715000Y-110013750D03*
%TD*%
D11*
%TO.C,S13*%
X285432500Y-91281250D03*
D12*
X290512500Y-91281250D03*
D11*
X295592500Y-91281250D03*
D13*
X286702500Y-88741250D03*
X293052500Y-86201250D03*
%TD*%
D11*
%TO.C,S2*%
X66357500Y-91281250D03*
D12*
X71437500Y-91281250D03*
D11*
X76517500Y-91281250D03*
D13*
X67627500Y-88741250D03*
X73977500Y-86201250D03*
%TD*%
D11*
%TO.C,S33*%
X333057500Y-115093750D03*
D12*
X338137500Y-115093750D03*
D11*
X343217500Y-115093750D03*
D13*
X334327500Y-112553750D03*
X340677500Y-110013750D03*
%TD*%
D11*
%TO.C,S8*%
X185420000Y-91281250D03*
D12*
X190500000Y-91281250D03*
D11*
X195580000Y-91281250D03*
D13*
X186690000Y-88741250D03*
X193040000Y-86201250D03*
%TD*%
D14*
%TO.C,REF\u002A\u002A*%
X285718250Y-165258750D03*
D15*
X285718250Y-180468750D03*
D14*
X309594250Y-165258750D03*
D15*
X309594250Y-180468750D03*
%TD*%
D11*
%TO.C,S28*%
X233045000Y-115093750D03*
D12*
X238125000Y-115093750D03*
D11*
X243205000Y-115093750D03*
D13*
X234315000Y-112553750D03*
X240665000Y-110013750D03*
%TD*%
D11*
%TO.C,S76*%
X256857500Y-172243750D03*
D12*
X261937500Y-172243750D03*
D11*
X267017500Y-172243750D03*
D13*
X258127500Y-169703750D03*
X264477500Y-167163750D03*
%TD*%
D11*
%TO.C,S15*%
X333057500Y-91281250D03*
D12*
X338137500Y-91281250D03*
D11*
X343217500Y-91281250D03*
D13*
X334327500Y-88741250D03*
X340677500Y-86201250D03*
%TD*%
D11*
%TO.C,S19*%
X61595000Y-115093750D03*
D12*
X66675000Y-115093750D03*
D11*
X71755000Y-115093750D03*
D13*
X62865000Y-112553750D03*
X69215000Y-110013750D03*
%TD*%
D11*
%TO.C,S7*%
X166370000Y-91281250D03*
D12*
X171450000Y-91281250D03*
D11*
X176530000Y-91281250D03*
D13*
X167640000Y-88741250D03*
X173990000Y-86201250D03*
%TD*%
D11*
%TO.C,S83.5*%
X175895000Y-191293750D03*
D12*
X180975000Y-191293750D03*
D11*
X186055000Y-191293750D03*
D13*
X177165000Y-188753750D03*
X183515000Y-186213750D03*
%TD*%
D11*
%TO.C,S58*%
X152082500Y-153193750D03*
D12*
X157162500Y-153193750D03*
D11*
X162242500Y-153193750D03*
D13*
X153352500Y-150653750D03*
X159702500Y-148113750D03*
%TD*%
D11*
%TO.C,S18*%
X42545000Y-115093750D03*
D12*
X47625000Y-115093750D03*
D11*
X52705000Y-115093750D03*
D13*
X43815000Y-112553750D03*
X50165000Y-110013750D03*
%TD*%
D11*
%TO.C,S48*%
X280670000Y-134143750D03*
D12*
X285750000Y-134143750D03*
D11*
X290830000Y-134143750D03*
D13*
X281940000Y-131603750D03*
X288290000Y-129063750D03*
%TD*%
D14*
%TO.C,REF\u002A\u002A*%
X238125000Y-198278750D03*
D15*
X238125000Y-183068750D03*
D14*
X123825000Y-198278750D03*
D15*
X123825000Y-183068750D03*
%TD*%
D11*
%TO.C,S88*%
X333057500Y-191293750D03*
D12*
X338137500Y-191293750D03*
D11*
X343217500Y-191293750D03*
D13*
X334327500Y-188753750D03*
X340677500Y-186213750D03*
%TD*%
D11*
%TO.C,S10*%
X223520000Y-91281250D03*
D12*
X228600000Y-91281250D03*
D11*
X233680000Y-91281250D03*
D13*
X224790000Y-88741250D03*
X231140000Y-86201250D03*
%TD*%
D11*
%TO.C,S79*%
X352107500Y-172243750D03*
D12*
X357187500Y-172243750D03*
D11*
X362267500Y-172243750D03*
D13*
X353377500Y-169703750D03*
X359727500Y-167163750D03*
%TD*%
D11*
%TO.C,S6*%
X137795000Y-91281250D03*
D12*
X142875000Y-91281250D03*
D11*
X147955000Y-91281250D03*
D13*
X139065000Y-88741250D03*
X145415000Y-86201250D03*
%TD*%
D11*
%TO.C,S81*%
X71120000Y-191293750D03*
D12*
X76200000Y-191293750D03*
D11*
X81280000Y-191293750D03*
D13*
X72390000Y-188753750D03*
X78740000Y-186213750D03*
%TD*%
D11*
%TO.C,S9*%
X204470000Y-91281250D03*
D12*
X209550000Y-91281250D03*
D11*
X214630000Y-91281250D03*
D13*
X205740000Y-88741250D03*
X212090000Y-86201250D03*
%TD*%
D11*
%TO.C,S59*%
X171132500Y-153193750D03*
D12*
X176212500Y-153193750D03*
D11*
X181292500Y-153193750D03*
D13*
X172402500Y-150653750D03*
X178752500Y-148113750D03*
%TD*%
D11*
%TO.C,S26*%
X194945000Y-115093750D03*
D12*
X200025000Y-115093750D03*
D11*
X205105000Y-115093750D03*
D13*
X196215000Y-112553750D03*
X202565000Y-110013750D03*
%TD*%
D11*
%TO.C,S77*%
X283051250Y-172243750D03*
D12*
X288131250Y-172243750D03*
D11*
X293211250Y-172243750D03*
D13*
X284321250Y-169703750D03*
X290671250Y-167163750D03*
%TD*%
D11*
%TO.C,S46*%
X242570000Y-134143750D03*
D12*
X247650000Y-134143750D03*
D11*
X252730000Y-134143750D03*
D13*
X243840000Y-131603750D03*
X250190000Y-129063750D03*
%TD*%
D11*
%TO.C,S6.5*%
X147320000Y-91281250D03*
D12*
X152400000Y-91281250D03*
D11*
X157480000Y-91281250D03*
D13*
X148590000Y-88741250D03*
X154940000Y-86201250D03*
%TD*%
D11*
%TO.C,S87*%
X304482500Y-191293750D03*
D12*
X309562500Y-191293750D03*
D11*
X314642500Y-191293750D03*
D13*
X305752500Y-188753750D03*
X312102500Y-186213750D03*
%TD*%
D11*
%TO.C,S11*%
X247332500Y-91281250D03*
D12*
X252412500Y-91281250D03*
D11*
X257492500Y-91281250D03*
D13*
X248602500Y-88741250D03*
X254952500Y-86201250D03*
%TD*%
D11*
%TO.C,S72*%
X180657500Y-172243750D03*
D12*
X185737500Y-172243750D03*
D11*
X190817500Y-172243750D03*
D13*
X181927500Y-169703750D03*
X188277500Y-167163750D03*
%TD*%
D11*
%TO.C,S86*%
X280670000Y-191293750D03*
D12*
X285750000Y-191293750D03*
D11*
X290830000Y-191293750D03*
D13*
X281940000Y-188753750D03*
X288290000Y-186213750D03*
%TD*%
D11*
%TO.C,S54*%
X75882500Y-153193750D03*
D12*
X80962500Y-153193750D03*
D11*
X86042500Y-153193750D03*
D13*
X77152500Y-150653750D03*
X83502500Y-148113750D03*
%TD*%
D11*
%TO.C,S27*%
X213995000Y-115093750D03*
D12*
X219075000Y-115093750D03*
D11*
X224155000Y-115093750D03*
D13*
X215265000Y-112553750D03*
X221615000Y-110013750D03*
%TD*%
D11*
%TO.C,S90*%
X371157500Y-191293750D03*
D12*
X376237500Y-191293750D03*
D11*
X381317500Y-191293750D03*
D13*
X372427500Y-188753750D03*
X378777500Y-186213750D03*
%TD*%
D11*
%TO.C,S86.5*%
X283051250Y-191293750D03*
D12*
X288131250Y-191293750D03*
D11*
X293211250Y-191293750D03*
D13*
X284321250Y-188753750D03*
X290671250Y-186213750D03*
%TD*%
D16*
%TO.C,USB1*%
X329120000Y-81190000D03*
X323340000Y-81190000D03*
D17*
X329455000Y-82635000D03*
X328680000Y-82635000D03*
D18*
X327980000Y-82635000D03*
X327480000Y-82635000D03*
X326980000Y-82635000D03*
X326480000Y-82635000D03*
X325980000Y-82635000D03*
X325480000Y-82635000D03*
X324980000Y-82635000D03*
X324480000Y-82635000D03*
D17*
X323780000Y-82635000D03*
X323005000Y-82635000D03*
D19*
X330550000Y-81720000D03*
D20*
X330550000Y-77540000D03*
D19*
X321910000Y-81720000D03*
D20*
X321910000Y-77540000D03*
%TD*%
D11*
%TO.C,S40*%
X128270000Y-134143750D03*
D12*
X133350000Y-134143750D03*
D11*
X138430000Y-134143750D03*
D13*
X129540000Y-131603750D03*
X135890000Y-129063750D03*
%TD*%
D11*
%TO.C,S31*%
X290195000Y-115093750D03*
D12*
X295275000Y-115093750D03*
D11*
X300355000Y-115093750D03*
D13*
X291465000Y-112553750D03*
X297815000Y-110013750D03*
%TD*%
D11*
%TO.C,S20*%
X80645000Y-115093750D03*
D12*
X85725000Y-115093750D03*
D11*
X90805000Y-115093750D03*
D13*
X81915000Y-112553750D03*
X88265000Y-110013750D03*
%TD*%
D11*
%TO.C,S84*%
X237807500Y-191293750D03*
D12*
X242887500Y-191293750D03*
D11*
X247967500Y-191293750D03*
D13*
X239077500Y-188753750D03*
X245427500Y-186213750D03*
%TD*%
D11*
%TO.C,S89*%
X352107500Y-191293750D03*
D12*
X357187500Y-191293750D03*
D11*
X362267500Y-191293750D03*
D13*
X353377500Y-188753750D03*
X359727500Y-186213750D03*
%TD*%
D11*
%TO.C,S45*%
X223520000Y-134143750D03*
D12*
X228600000Y-134143750D03*
D11*
X233680000Y-134143750D03*
D13*
X224790000Y-131603750D03*
X231140000Y-129063750D03*
%TD*%
D11*
%TO.C,S5.5*%
X123507500Y-91281250D03*
D12*
X128587500Y-91281250D03*
D11*
X133667500Y-91281250D03*
D13*
X124777500Y-88741250D03*
X131127500Y-86201250D03*
%TD*%
D11*
%TO.C,S12.5*%
X271145000Y-91281250D03*
D12*
X276225000Y-91281250D03*
D11*
X281305000Y-91281250D03*
D13*
X272415000Y-88741250D03*
X278765000Y-86201250D03*
%TD*%
D11*
%TO.C,S85.5*%
X261620000Y-191293750D03*
D12*
X266700000Y-191293750D03*
D11*
X271780000Y-191293750D03*
D13*
X262890000Y-188753750D03*
X269240000Y-186213750D03*
%TD*%
D11*
%TO.C,S85*%
X256857500Y-191293750D03*
D12*
X261937500Y-191293750D03*
D11*
X267017500Y-191293750D03*
D13*
X258127500Y-188753750D03*
X264477500Y-186213750D03*
%TD*%
D11*
%TO.C,S51*%
X352107500Y-134143750D03*
D12*
X357187500Y-134143750D03*
D11*
X362267500Y-134143750D03*
D13*
X353377500Y-131603750D03*
X359727500Y-129063750D03*
%TD*%
D11*
%TO.C,S10.5*%
X228282500Y-91281250D03*
D12*
X233362500Y-91281250D03*
D11*
X238442500Y-91281250D03*
D13*
X229552500Y-88741250D03*
X235902500Y-86201250D03*
%TD*%
D11*
%TO.C,S21*%
X99695000Y-115093750D03*
D12*
X104775000Y-115093750D03*
D11*
X109855000Y-115093750D03*
D13*
X100965000Y-112553750D03*
X107315000Y-110013750D03*
%TD*%
D11*
%TO.C,S69*%
X123507500Y-172243750D03*
D12*
X128587500Y-172243750D03*
D11*
X133667500Y-172243750D03*
D13*
X124777500Y-169703750D03*
X131127500Y-167163750D03*
%TD*%
D11*
%TO.C,S66*%
X54451250Y-172243750D03*
D12*
X59531250Y-172243750D03*
D11*
X64611250Y-172243750D03*
D13*
X55721250Y-169703750D03*
X62071250Y-167163750D03*
%TD*%
D11*
%TO.C,S12*%
X266382500Y-91281250D03*
D12*
X271462500Y-91281250D03*
D11*
X276542500Y-91281250D03*
D13*
X267652500Y-88741250D03*
X274002500Y-86201250D03*
%TD*%
D11*
%TO.C,S53*%
X49688750Y-153193750D03*
D12*
X54768750Y-153193750D03*
D11*
X59848750Y-153193750D03*
D13*
X50958750Y-150653750D03*
X57308750Y-148113750D03*
%TD*%
D11*
%TO.C,S83*%
X166370000Y-191293750D03*
D12*
X171450000Y-191293750D03*
D11*
X176530000Y-191293750D03*
D13*
X167640000Y-188753750D03*
X173990000Y-186213750D03*
%TD*%
D11*
%TO.C,S38*%
X90170000Y-134143750D03*
D12*
X95250000Y-134143750D03*
D11*
X100330000Y-134143750D03*
D13*
X91440000Y-131603750D03*
X97790000Y-129063750D03*
%TD*%
D11*
%TO.C,S30*%
X271145000Y-115093750D03*
D12*
X276225000Y-115093750D03*
D11*
X281305000Y-115093750D03*
D13*
X272415000Y-112553750D03*
X278765000Y-110013750D03*
%TD*%
D11*
%TO.C,S67*%
X85407500Y-172243750D03*
D12*
X90487500Y-172243750D03*
D11*
X95567500Y-172243750D03*
D13*
X86677500Y-169703750D03*
X93027500Y-167163750D03*
%TD*%
D14*
%TO.C,REF\u002A\u002A*%
X47593250Y-165258750D03*
D15*
X47593250Y-180468750D03*
D14*
X71469250Y-165258750D03*
D15*
X71469250Y-180468750D03*
%TD*%
D14*
%TO.C,REF\u002A\u002A*%
X314356750Y-160178750D03*
D15*
X314356750Y-144968750D03*
D14*
X290480750Y-160178750D03*
D15*
X290480750Y-144968750D03*
%TD*%
D11*
%TO.C,S1*%
X42545000Y-91281250D03*
D12*
X47625000Y-91281250D03*
D11*
X52705000Y-91281250D03*
D13*
X43815000Y-88741250D03*
X50165000Y-86201250D03*
%TD*%
D11*
%TO.C,S24*%
X156845000Y-115093750D03*
D12*
X161925000Y-115093750D03*
D11*
X167005000Y-115093750D03*
D13*
X158115000Y-112553750D03*
X164465000Y-110013750D03*
%TD*%
D11*
%TO.C,S63*%
X247332500Y-153193750D03*
D12*
X252412500Y-153193750D03*
D11*
X257492500Y-153193750D03*
D13*
X248602500Y-150653750D03*
X254952500Y-148113750D03*
%TD*%
D14*
%TO.C,REF\u002A\u002A*%
X219075000Y-198278750D03*
D15*
X219075000Y-183068750D03*
D14*
X123825000Y-198278750D03*
D15*
X123825000Y-183068750D03*
%TD*%
D11*
%TO.C,S22*%
X118745000Y-115093750D03*
D12*
X123825000Y-115093750D03*
D11*
X128905000Y-115093750D03*
D13*
X120015000Y-112553750D03*
X126365000Y-110013750D03*
%TD*%
D11*
%TO.C,S65*%
X297338750Y-153193750D03*
D12*
X302418750Y-153193750D03*
D11*
X307498750Y-153193750D03*
D13*
X298608750Y-150653750D03*
X304958750Y-148113750D03*
%TD*%
D11*
%TO.C,S25*%
X175895000Y-115093750D03*
D12*
X180975000Y-115093750D03*
D11*
X186055000Y-115093750D03*
D13*
X177165000Y-112553750D03*
X183515000Y-110013750D03*
%TD*%
D11*
%TO.C,S4*%
X99695000Y-91281250D03*
D12*
X104775000Y-91281250D03*
D11*
X109855000Y-91281250D03*
D13*
X100965000Y-88741250D03*
X107315000Y-86201250D03*
%TD*%
D11*
%TO.C,S16*%
X352107500Y-91281250D03*
D12*
X357187500Y-91281250D03*
D11*
X362267500Y-91281250D03*
D13*
X353377500Y-88741250D03*
X359727500Y-86201250D03*
%TD*%
D11*
%TO.C,S37*%
X71120000Y-134143750D03*
D12*
X76200000Y-134143750D03*
D11*
X81280000Y-134143750D03*
D13*
X72390000Y-131603750D03*
X78740000Y-129063750D03*
%TD*%
D11*
%TO.C,S49*%
X304482500Y-134143750D03*
D12*
X309562500Y-134143750D03*
D11*
X314642500Y-134143750D03*
D13*
X305752500Y-131603750D03*
X312102500Y-129063750D03*
%TD*%
D11*
%TO.C,S42*%
X166370000Y-134143750D03*
D12*
X171450000Y-134143750D03*
D11*
X176530000Y-134143750D03*
D13*
X167640000Y-131603750D03*
X173990000Y-129063750D03*
%TD*%
D11*
%TO.C,S82*%
X94932500Y-191293750D03*
D12*
X100012500Y-191293750D03*
D11*
X105092500Y-191293750D03*
D13*
X96202500Y-188753750D03*
X102552500Y-186213750D03*
%TD*%
D11*
%TO.C,S56*%
X113982500Y-153193750D03*
D12*
X119062500Y-153193750D03*
D11*
X124142500Y-153193750D03*
D13*
X115252500Y-150653750D03*
X121602500Y-148113750D03*
%TD*%
D11*
%TO.C,S34*%
X352107500Y-115093750D03*
D12*
X357187500Y-115093750D03*
D11*
X362267500Y-115093750D03*
D13*
X353377500Y-112553750D03*
X359727500Y-110013750D03*
%TD*%
D11*
%TO.C,S81.5*%
X68738750Y-191293750D03*
D12*
X73818750Y-191293750D03*
D11*
X78898750Y-191293750D03*
D13*
X70008750Y-188753750D03*
X76358750Y-186213750D03*
%TD*%
D11*
%TO.C,S3.5*%
X85407500Y-91281250D03*
D12*
X90487500Y-91281250D03*
D11*
X95567500Y-91281250D03*
D13*
X86677500Y-88741250D03*
X93027500Y-86201250D03*
%TD*%
D11*
%TO.C,S32*%
X299720000Y-115093750D03*
D12*
X304800000Y-115093750D03*
D11*
X309880000Y-115093750D03*
D13*
X300990000Y-112553750D03*
X307340000Y-110013750D03*
%TD*%
D11*
%TO.C,S32.5*%
X309245000Y-115093750D03*
D12*
X314325000Y-115093750D03*
D11*
X319405000Y-115093750D03*
D13*
X310515000Y-112553750D03*
X316865000Y-110013750D03*
%TD*%
D11*
%TO.C,S74*%
X218757500Y-172243750D03*
D12*
X223837500Y-172243750D03*
D11*
X228917500Y-172243750D03*
D13*
X220027500Y-169703750D03*
X226377500Y-167163750D03*
%TD*%
D11*
%TO.C,S17*%
X371157500Y-91281250D03*
D12*
X376237500Y-91281250D03*
D11*
X381317500Y-91281250D03*
D13*
X372427500Y-88741250D03*
X378777500Y-86201250D03*
%TD*%
D11*
%TO.C,S3*%
X80645000Y-91281250D03*
D12*
X85725000Y-91281250D03*
D11*
X90805000Y-91281250D03*
D13*
X81915000Y-88741250D03*
X88265000Y-86201250D03*
%TD*%
D11*
%TO.C,S44*%
X204470000Y-134143750D03*
D12*
X209550000Y-134143750D03*
D11*
X214630000Y-134143750D03*
D13*
X205740000Y-131603750D03*
X212090000Y-129063750D03*
%TD*%
D11*
%TO.C,S80.5*%
X44926250Y-191293750D03*
D12*
X50006250Y-191293750D03*
D11*
X55086250Y-191293750D03*
D13*
X46196250Y-188753750D03*
X52546250Y-186213750D03*
%TD*%
D11*
%TO.C,S70*%
X142557500Y-172243750D03*
D12*
X147637500Y-172243750D03*
D11*
X152717500Y-172243750D03*
D13*
X143827500Y-169703750D03*
X150177500Y-167163750D03*
%TD*%
D11*
%TO.C,S61*%
X209232500Y-153193750D03*
D12*
X214312500Y-153193750D03*
D11*
X219392500Y-153193750D03*
D13*
X210502500Y-150653750D03*
X216852500Y-148113750D03*
%TD*%
D11*
%TO.C,S41*%
X147320000Y-134143750D03*
D12*
X152400000Y-134143750D03*
D11*
X157480000Y-134143750D03*
D13*
X148590000Y-131603750D03*
X154940000Y-129063750D03*
%TD*%
D11*
%TO.C,S35*%
X371157500Y-115093750D03*
D12*
X376237500Y-115093750D03*
D11*
X381317500Y-115093750D03*
D13*
X372427500Y-112553750D03*
X378777500Y-110013750D03*
%TD*%
D11*
%TO.C,S43*%
X185420000Y-134143750D03*
D12*
X190500000Y-134143750D03*
D11*
X195580000Y-134143750D03*
D13*
X186690000Y-131603750D03*
X193040000Y-129063750D03*
%TD*%
D11*
%TO.C,S50*%
X333057500Y-134143750D03*
D12*
X338137500Y-134143750D03*
D11*
X343217500Y-134143750D03*
D13*
X334327500Y-131603750D03*
X340677500Y-129063750D03*
%TD*%
D11*
%TO.C,S52*%
X371157500Y-134143750D03*
D12*
X376237500Y-134143750D03*
D11*
X381317500Y-134143750D03*
D13*
X372427500Y-131603750D03*
X378777500Y-129063750D03*
%TD*%
D11*
%TO.C,S78*%
X309245000Y-172243750D03*
D12*
X314325000Y-172243750D03*
D11*
X319405000Y-172243750D03*
D13*
X310515000Y-169703750D03*
X316865000Y-167163750D03*
%TD*%
D11*
%TO.C,S5*%
X118745000Y-91281250D03*
D12*
X123825000Y-91281250D03*
D11*
X128905000Y-91281250D03*
D13*
X120015000Y-88741250D03*
X126365000Y-86201250D03*
%TD*%
D11*
%TO.C,S77.5*%
X292576250Y-172243750D03*
D12*
X297656250Y-172243750D03*
D11*
X302736250Y-172243750D03*
D13*
X293846250Y-169703750D03*
X300196250Y-167163750D03*
%TD*%
D11*
%TO.C,S64*%
X266382500Y-153193750D03*
D12*
X271462500Y-153193750D03*
D11*
X276542500Y-153193750D03*
D13*
X267652500Y-150653750D03*
X274002500Y-148113750D03*
%TD*%
D11*
%TO.C,S53.5*%
X44926250Y-153193750D03*
D12*
X50006250Y-153193750D03*
D11*
X55086250Y-153193750D03*
D13*
X46196250Y-150653750D03*
X52546250Y-148113750D03*
%TD*%
D11*
%TO.C,S55*%
X94932500Y-153193750D03*
D12*
X100012500Y-153193750D03*
D11*
X105092500Y-153193750D03*
D13*
X96202500Y-150653750D03*
X102552500Y-148113750D03*
%TD*%
D11*
%TO.C,S80*%
X47307500Y-191293750D03*
D12*
X52387500Y-191293750D03*
D11*
X57467500Y-191293750D03*
D13*
X48577500Y-188753750D03*
X54927500Y-186213750D03*
%TD*%
D11*
%TO.C,S47*%
X261620000Y-134143750D03*
D12*
X266700000Y-134143750D03*
D11*
X271780000Y-134143750D03*
D13*
X262890000Y-131603750D03*
X269240000Y-129063750D03*
%TD*%
D11*
%TO.C,S14*%
X309245000Y-91281250D03*
D12*
X314325000Y-91281250D03*
D11*
X319405000Y-91281250D03*
D13*
X310515000Y-88741250D03*
X316865000Y-86201250D03*
%TD*%
D11*
%TO.C,S73*%
X199707500Y-172243750D03*
D12*
X204787500Y-172243750D03*
D11*
X209867500Y-172243750D03*
D13*
X200977500Y-169703750D03*
X207327500Y-167163750D03*
%TD*%
D11*
%TO.C,S11.5*%
X252095000Y-91281250D03*
D12*
X257175000Y-91281250D03*
D11*
X262255000Y-91281250D03*
D13*
X253365000Y-88741250D03*
X259715000Y-86201250D03*
%TD*%
D11*
%TO.C,S87.5*%
X306863750Y-191293750D03*
D12*
X311943750Y-191293750D03*
D11*
X317023750Y-191293750D03*
D13*
X308133750Y-188753750D03*
X314483750Y-186213750D03*
%TD*%
D14*
%TO.C,REF\u002A\u002A*%
X292862000Y-108108750D03*
D15*
X292862000Y-123318750D03*
D14*
X316738000Y-108108750D03*
D15*
X316738000Y-123318750D03*
%TD*%
D11*
%TO.C,S23*%
X137795000Y-115093750D03*
D12*
X142875000Y-115093750D03*
D11*
X147955000Y-115093750D03*
D13*
X139065000Y-112553750D03*
X145415000Y-110013750D03*
%TD*%
D11*
%TO.C,S4.5*%
X104457500Y-91281250D03*
D12*
X109537500Y-91281250D03*
D11*
X114617500Y-91281250D03*
D13*
X105727500Y-88741250D03*
X112077500Y-86201250D03*
%TD*%
D11*
%TO.C,S57*%
X133032500Y-153193750D03*
D12*
X138112500Y-153193750D03*
D11*
X143192500Y-153193750D03*
D13*
X134302500Y-150653750D03*
X140652500Y-148113750D03*
%TD*%
M02*
