M48
; DRILL file {KiCad 9.0.5} date 2025-11-02T19:54:10+0900
; FORMAT={-:-/ absolute / metric / decimal}
; #@! TF.CreationDate,2025-11-02T19:54:10+09:00
; #@! TF.GenerationSoftware,Kicad,Pcbnew,9.0.5
; #@! TF.FileFunction,NonPlated,1,2,NPTH
FMAT,2
METRIC
; #@! TA.AperFunction,NonPlated,NPTH,ComponentDrill
T1C0.650
; #@! TA.AperFunction,NonPlated,NPTH,ComponentDrill
T2C1.750
; #@! TA.AperFunction,NonPlated,NPTH,ComponentDrill
T3C3.048
; #@! TA.AperFunction,NonPlated,NPTH,ComponentDrill
T4C3.988
; #@! TA.AperFunction,NonPlated,NPTH,ComponentDrill
T5C4.000
%
G90
G05
T1
X323.34Y-81.19
X329.12Y-81.19
T2
X42.545Y-91.281
X42.545Y-115.094
X44.926Y-153.194
X44.926Y-191.294
X47.307Y-134.144
X47.307Y-191.294
X49.689Y-153.194
X52.705Y-91.281
X52.705Y-115.094
X54.451Y-172.244
X55.086Y-153.194
X55.086Y-191.294
X57.467Y-134.144
X57.467Y-191.294
X59.849Y-153.194
X61.595Y-115.094
X64.611Y-172.244
X66.358Y-91.281
X68.739Y-191.294
X71.12Y-134.144
X71.12Y-191.294
X71.755Y-115.094
X75.882Y-153.194
X76.517Y-91.281
X78.899Y-191.294
X80.645Y-91.281
X80.645Y-115.094
X81.28Y-134.144
X81.28Y-191.294
X85.407Y-91.281
X85.407Y-172.244
X86.042Y-153.194
X90.17Y-134.144
X90.805Y-91.281
X90.805Y-115.094
X94.932Y-153.194
X94.932Y-191.294
X95.567Y-91.281
X95.567Y-172.244
X99.695Y-91.281
X99.695Y-115.094
X100.33Y-134.144
X104.457Y-91.281
X104.457Y-172.244
X105.093Y-153.194
X105.093Y-191.294
X109.22Y-134.144
X109.855Y-91.281
X109.855Y-115.094
X113.983Y-153.194
X114.617Y-91.281
X114.617Y-172.244
X118.745Y-91.281
X118.745Y-115.094
X119.38Y-134.144
X123.507Y-91.281
X123.507Y-172.244
X124.142Y-153.194
X128.27Y-134.144
X128.905Y-91.281
X128.905Y-115.094
X133.032Y-153.194
X133.667Y-91.281
X133.667Y-172.244
X137.795Y-91.281
X137.795Y-115.094
X138.43Y-134.144
X142.558Y-172.244
X143.192Y-153.194
X147.32Y-91.281
X147.32Y-134.144
X147.955Y-91.281
X147.955Y-115.094
X152.082Y-153.194
X152.718Y-172.244
X156.845Y-115.094
X157.48Y-91.281
X157.48Y-134.144
X161.607Y-172.244
X162.243Y-153.194
X166.37Y-91.281
X166.37Y-134.144
X166.37Y-191.294
X167.005Y-115.094
X171.132Y-153.194
X171.767Y-172.244
X175.895Y-115.094
X175.895Y-191.294
X176.53Y-91.281
X176.53Y-134.144
X176.53Y-191.294
X180.657Y-172.244
X181.292Y-153.194
X185.42Y-91.281
X185.42Y-134.144
X186.055Y-115.094
X186.055Y-191.294
X190.183Y-153.194
X190.817Y-172.244
X194.945Y-115.094
X195.58Y-91.281
X195.58Y-134.144
X199.707Y-172.244
X200.343Y-153.194
X204.47Y-91.281
X204.47Y-134.144
X205.105Y-115.094
X209.232Y-153.194
X209.867Y-172.244
X213.995Y-115.094
X214.63Y-91.281
X214.63Y-134.144
X218.757Y-172.244
X219.392Y-153.194
X223.52Y-91.281
X223.52Y-134.144
X224.155Y-115.094
X228.282Y-91.281
X228.282Y-153.194
X228.917Y-172.244
X233.045Y-115.094
X233.68Y-91.281
X233.68Y-134.144
X237.807Y-172.244
X237.807Y-191.294
X238.442Y-91.281
X238.442Y-153.194
X242.57Y-134.144
X243.205Y-115.094
X247.332Y-91.281
X247.332Y-153.194
X247.968Y-172.244
X247.968Y-191.294
X252.095Y-91.281
X252.095Y-115.094
X252.73Y-134.144
X256.858Y-172.244
X256.858Y-191.294
X257.493Y-91.281
X257.493Y-153.194
X261.62Y-134.144
X261.62Y-191.294
X262.255Y-91.281
X262.255Y-115.094
X266.382Y-91.281
X266.382Y-153.194
X267.017Y-172.244
X267.017Y-191.294
X271.145Y-91.281
X271.145Y-115.094
X271.78Y-134.144
X271.78Y-191.294
X276.542Y-91.281
X276.542Y-153.194
X280.67Y-134.144
X280.67Y-191.294
X281.305Y-91.281
X281.305Y-115.094
X283.051Y-172.244
X283.051Y-191.294
X285.433Y-91.281
X290.195Y-91.281
X290.195Y-115.094
X290.83Y-134.144
X290.83Y-191.294
X292.576Y-172.244
X293.211Y-172.244
X293.211Y-191.294
X295.592Y-91.281
X297.339Y-153.194
X299.72Y-115.094
X300.355Y-91.281
X300.355Y-115.094
X302.736Y-172.244
X304.482Y-134.144
X304.482Y-191.294
X306.864Y-191.294
X307.499Y-153.194
X309.245Y-91.281
X309.245Y-115.094
X309.245Y-172.244
X309.88Y-115.094
X314.642Y-134.144
X314.642Y-191.294
X317.024Y-191.294
X319.405Y-91.281
X319.405Y-115.094
X319.405Y-172.244
X333.058Y-91.281
X333.058Y-115.094
X333.058Y-134.144
X333.058Y-191.294
X343.217Y-91.281
X343.217Y-115.094
X343.217Y-134.144
X343.217Y-191.294
X352.107Y-91.281
X352.107Y-115.094
X352.107Y-134.144
X352.107Y-172.244
X352.107Y-191.294
X362.267Y-91.281
X362.267Y-115.094
X362.267Y-134.144
X362.267Y-172.244
X362.267Y-191.294
X371.157Y-91.281
X371.157Y-115.094
X371.157Y-134.144
X371.157Y-191.294
X381.317Y-91.281
X381.317Y-115.094
X381.317Y-134.144
X381.317Y-191.294
T3
X47.593Y-165.259
X71.469Y-165.259
X123.825Y-198.279
X123.825Y-198.279
X219.075Y-198.279
X238.125Y-198.279
X285.718Y-165.259
X290.481Y-160.179
X292.862Y-108.109
X309.594Y-165.259
X314.357Y-160.179
X316.738Y-108.109
T4
X47.593Y-180.469
X71.469Y-180.469
X123.825Y-183.069
X123.825Y-183.069
X219.075Y-183.069
X238.125Y-183.069
X285.718Y-180.469
X290.481Y-144.969
X292.862Y-123.319
X309.594Y-180.469
X314.357Y-144.969
X316.738Y-123.319
T5
X47.625Y-91.281
X47.625Y-115.094
X50.006Y-153.194
X50.006Y-191.294
X52.387Y-134.144
X52.387Y-191.294
X54.769Y-153.194
X59.531Y-172.244
X66.675Y-115.094
X71.438Y-91.281
X73.819Y-191.294
X76.2Y-134.144
X76.2Y-191.294
X80.962Y-153.194
X85.725Y-91.281
X85.725Y-115.094
X90.487Y-91.281
X90.487Y-172.244
X95.25Y-134.144
X100.012Y-153.194
X100.012Y-191.294
X104.775Y-91.281
X104.775Y-115.094
X109.537Y-91.281
X109.537Y-172.244
X114.3Y-134.144
X119.062Y-153.194
X123.825Y-91.281
X123.825Y-115.094
X128.588Y-91.281
X128.588Y-172.244
X133.35Y-134.144
X138.112Y-153.194
X142.875Y-91.281
X142.875Y-115.094
X147.637Y-172.244
X152.4Y-91.281
X152.4Y-134.144
X157.162Y-153.194
X161.925Y-115.094
X166.688Y-172.244
X171.45Y-91.281
X171.45Y-134.144
X171.45Y-191.294
X176.213Y-153.194
X180.975Y-115.094
X180.975Y-191.294
X185.737Y-172.244
X190.5Y-91.281
X190.5Y-134.144
X195.262Y-153.194
X200.025Y-115.094
X204.787Y-172.244
X209.55Y-91.281
X209.55Y-134.144
X214.312Y-153.194
X219.075Y-115.094
X223.837Y-172.244
X228.6Y-91.281
X228.6Y-134.144
X233.362Y-91.281
X233.362Y-153.194
X238.125Y-115.094
X242.887Y-172.244
X242.887Y-191.294
X247.65Y-134.144
X252.412Y-91.281
X252.412Y-153.194
X257.175Y-91.281
X257.175Y-115.094
X261.938Y-172.244
X261.938Y-191.294
X266.7Y-134.144
X266.7Y-191.294
X271.462Y-91.281
X271.462Y-153.194
X276.225Y-91.281
X276.225Y-115.094
X285.75Y-134.144
X285.75Y-191.294
X288.131Y-172.244
X288.131Y-191.294
X290.512Y-91.281
X295.275Y-91.281
X295.275Y-115.094
X297.656Y-172.244
X302.419Y-153.194
X304.8Y-115.094
X309.562Y-134.144
X309.562Y-191.294
X311.944Y-191.294
X314.325Y-91.281
X314.325Y-115.094
X314.325Y-172.244
X338.137Y-91.281
X338.137Y-115.094
X338.137Y-134.144
X338.137Y-191.294
X357.188Y-91.281
X357.188Y-115.094
X357.188Y-134.144
X357.188Y-172.244
X357.188Y-191.294
X376.238Y-91.281
X376.238Y-115.094
X376.238Y-134.144
X376.238Y-191.294
M30
